<?xml version="1.0" encoding="UTF-8" standalone="no"?>
<svg
   width="40mm"
   height="40mm"
   viewBox="0 0 40 40"
   version="1.1"
   id="svg8"
   inkscape:version="1.2.1 (9c6d41e410, 2022-07-14)"
   sodipodi:docname="H-Regler.svg"
   xmlns:inkscape="http://www.inkscape.org/namespaces/inkscape"
   xmlns:sodipodi="http://sodipodi.sourceforge.net/DTD/sodipodi-0.dtd"
   xmlns="http://www.w3.org/2000/svg"
   xmlns:svg="http://www.w3.org/2000/svg"
   xmlns:rdf="http://www.w3.org/1999/02/22-rdf-syntax-ns#"
   xmlns:cc="http://creativecommons.org/ns#"
   xmlns:dc="http://purl.org/dc/elements/1.1/">
  <defs
     id="defs2">
    <rect
       x="67.084648"
       y="63.342876"
       width="30.201456"
       height="18.708866"
       id="rect12" />
    <pattern
       id="EMFhbasepattern"
       patternUnits="userSpaceOnUse"
       width="6"
       height="6"
       x="0"
       y="0" />
    <pattern
       id="EMFhbasepattern-1"
       patternUnits="userSpaceOnUse"
       width="6"
       height="6"
       x="0"
       y="0" />
  </defs>
  <sodipodi:namedview
     id="base"
     pagecolor="#ffffff"
     bordercolor="#666666"
     borderopacity="1.0"
     inkscape:pageopacity="0.0"
     inkscape:pageshadow="2"
     inkscape:zoom="3.959798"
     inkscape:cx="3.1567267"
     inkscape:cy="53.790623"
     inkscape:document-units="mm"
     inkscape:current-layer="layer1"
     inkscape:document-rotation="0"
     showgrid="false"
     inkscape:window-width="1920"
     inkscape:window-height="986"
     inkscape:window-x="-11"
     inkscape:window-y="-11"
     inkscape:window-maximized="1"
     inkscape:showpageshadow="0"
     inkscape:pagecheckerboard="0"
     inkscape:deskcolor="#d1d1d1" />
  <metadata
     id="metadata5">
    <rdf:RDF>
      <cc:Work
         rdf:about="">
        <dc:format>image/svg+xml</dc:format>
        <dc:type
           rdf:resource="http://purl.org/dc/dcmitype/StillImage" />
      </cc:Work>
    </rdf:RDF>
  </metadata>
  <g
     inkscape:label="Ebene 1"
     inkscape:groupmode="layer"
     id="layer1">
    <path
       style="fill:#000000;fill-opacity:1;fill-rule:evenodd;stroke:none;stroke-width:1.88227"
       d="m 27.446238,33.686789 c 0,-4.196869 0,-8.456372 0,-12.653235 -4.964159,0 -9.928318,0 -14.892477,0 0,4.196863 0,8.456366 0,12.653235 -1.193911,0 -2.45066,0 -3.7074094,0 0,-9.14541 0,-18.228174 0,-27.3735777 1.2567494,0 2.5134984,0 3.7074094,0 0,3.8836677 0,7.7046947 0,11.5883547 4.964159,0 9.928318,0 14.892477,0 0,-3.88366 0,-7.704687 0,-11.5883547 1.25675,0 2.450661,0 3.70741,0 0,9.1454037 0,18.2281677 0,27.3735777 -1.256749,0 -2.45066,0 -3.70741,0 z"
       id="path23" />
    <path
       style="fill:#000000;stroke:#000000;stroke-width:2;stroke-dasharray:none"
       d="M 0.99609375,0 V 39.999999"
       id="path4746" />
    <path
       style="fill:#000000;fill-opacity:0;stroke:#000000;stroke-width:1.95016;stroke-dasharray:none"
       d="M -0.00636919,0.96879284 H 39.018549 l 10e-7,38.02492016"
       id="path4750" />
    <path
       style="fill:#000000;stroke:#000000;stroke-width:2;stroke-dasharray:none"
       d="M 1e-6,39 H 40"
       id="path4752" />
    <path
       style="fill:#ffffff;fill-opacity:1;stroke:#000000;stroke-width:1.90866144;stroke-dasharray:none;stroke-opacity:1"
       d="M 7.5761441,75.508903 V 7.5761441 H 75.635172 143.6942 V 75.508903 143.44166 H 75.635172 7.5761441 Z M 47.47717,103.54064 V 79.549513 h 28.031733 28.031737 v 23.991127 23.99112 h 7.19733 7.19734 V 75.635172 23.738585 h -7.19734 -7.19733 V 45.583134 67.427682 H 75.508903 47.47717 V 45.583134 23.738585 h -7.071068 -7.071068 v 51.896587 51.896588 h 7.071068 7.071068 z"
       id="path1154"
       transform="scale(0.26458333)" />
  </g>
</svg>
