<?xml version="1.0" encoding="UTF-8" standalone="no"?>
<svg
   width="40mm"
   height="40mm"
   viewBox="0 0 40 40"
   version="1.1"
   id="svg8"
   inkscape:version="1.2.1 (9c6d41e410, 2022-07-14)"
   sodipodi:docname="Q-Regler.svg"
   xmlns:inkscape="http://www.inkscape.org/namespaces/inkscape"
   xmlns:sodipodi="http://sodipodi.sourceforge.net/DTD/sodipodi-0.dtd"
   xmlns="http://www.w3.org/2000/svg"
   xmlns:svg="http://www.w3.org/2000/svg"
   xmlns:rdf="http://www.w3.org/1999/02/22-rdf-syntax-ns#"
   xmlns:cc="http://creativecommons.org/ns#"
   xmlns:dc="http://purl.org/dc/elements/1.1/">
  <defs
     id="defs2">
    <rect
       x="67.084648"
       y="63.342876"
       width="30.201456"
       height="18.708866"
       id="rect12" />
    <pattern
       id="EMFhbasepattern"
       patternUnits="userSpaceOnUse"
       width="6"
       height="6"
       x="0"
       y="0" />
    <pattern
       id="EMFhbasepattern-1"
       patternUnits="userSpaceOnUse"
       width="6"
       height="6"
       x="0"
       y="0" />
  </defs>
  <sodipodi:namedview
     id="base"
     pagecolor="#ffffff"
     bordercolor="#666666"
     borderopacity="1.0"
     inkscape:pageopacity="0.0"
     inkscape:pageshadow="2"
     inkscape:zoom="2.8"
     inkscape:cx="130.53571"
     inkscape:cy="72.678571"
     inkscape:document-units="mm"
     inkscape:current-layer="layer1"
     inkscape:document-rotation="0"
     showgrid="false"
     inkscape:window-width="1920"
     inkscape:window-height="986"
     inkscape:window-x="-11"
     inkscape:window-y="-11"
     inkscape:window-maximized="1"
     inkscape:showpageshadow="0"
     inkscape:pagecheckerboard="0"
     inkscape:deskcolor="#d1d1d1" />
  <metadata
     id="metadata5">
    <rdf:RDF>
      <cc:Work
         rdf:about="">
        <dc:format>image/svg+xml</dc:format>
        <dc:type
           rdf:resource="http://purl.org/dc/dcmitype/StillImage" />
      </cc:Work>
    </rdf:RDF>
  </metadata>
  <g
     inkscape:label="Ebene 1"
     inkscape:groupmode="layer"
     id="layer1">
    <path
       style="fill:#000000;fill-opacity:1;fill-rule:evenodd;stroke:none;stroke-width:1.48949"
       d="m 30.743341,16.927346 c 0,3.203971 -0.815961,5.882697 -2.396872,7.983668 -1.580915,2.048439 -3.773796,3.309019 -6.578648,3.676687 0.407991,1.365629 0.96895,2.363584 1.682911,2.993873 0.71396,0.577761 1.580916,0.892913 2.651856,0.892913 0.611971,0 1.223936,-0.05256 1.835901,-0.210075 v 2.153482 c -0.968945,0.262636 -1.937896,0.367644 -2.804846,0.367644 -1.580917,0 -2.906847,-0.472712 -3.926794,-1.41815 C 20.186904,32.47448 19.319954,30.898753 18.656988,28.745266 16.566103,28.640193 14.781196,28.114979 13.251281,27.117017 11.77236,26.119062 10.599424,24.753432 9.7834689,23.020139 9.0185084,21.234316 8.6105278,19.238403 8.6105278,16.92734 c 0,-3.676693 0.9689508,-6.565523 2.9068472,-8.6139614 1.988891,-2.0484384 4.691747,-3.0989157 8.159559,-3.0989157 2.294877,0 4.232773,0.4727114 5.915684,1.3656182 1.63191,0.9454342 2.906842,2.311064 3.824791,4.0443659 0.866956,1.785814 1.325932,3.886785 1.325932,6.302899 z m -3.110837,-0.05256 c 0,-2.836308 -0.66296,-5.094844 -2.090887,-6.723088 -1.376925,-1.6282483 -3.314821,-2.4161118 -5.864683,-2.4161118 -2.549861,0 -4.538757,0.7878635 -5.915683,2.4161118 -1.376926,1.575723 -2.090886,3.834259 -2.090886,6.723088 0,2.888818 0.71396,5.199881 2.141887,6.880658 1.376925,1.68077 3.365816,2.521156 5.864682,2.521156 2.549862,0 4.538753,-0.840386 5.915684,-2.468628 1.376926,-1.62825 2.039886,-3.939318 2.039886,-6.933186 z"
       id="path36" />
    <path
       style="fill:#000000;fill-opacity:0;stroke:#000000;stroke-width:1.99949;stroke-dasharray:none"
       d="M 0.67667989,1.3486704e-6 V 39.000254 l 39.00025411,1e-6"
       id="path8656" />
    <path
       style="fill:#000000;fill-opacity:0;stroke:#000000;stroke-width:2;stroke-dasharray:none"
       d="M 39,0 V 40"
       id="path8658" />
    <path
       style="fill:#000000;fill-opacity:0;stroke:#000000;stroke-width:2;stroke-dasharray:none"
       d="M 1.7e-6,1 H 40"
       id="path8660" />
    <path
       style="fill:#ffffff;stroke:#000000;stroke-width:2.69966"
       d="M 6.4285714,75.714286 V 7.8571429 H 75 143.57143 V 75.714286 143.57143 H 75 6.4285714 Z M 98.392857,131.43569 c 1.964283,-0.17928 4.415183,-0.50862 5.446433,-0.73185 l 1.875,-0.40589 v -4.29777 c 0,-4.28987 -0.001,-4.29733 -0.80358,-4.05809 -0.44196,0.13182 -2.49766,0.33245 -4.56822,0.44584 -4.012329,0.21971 -6.437951,-0.2283 -9.390015,-1.73433 -2.923632,-1.49152 -6.140714,-5.83189 -7.715736,-10.40976 l -0.690139,-2.00593 1.315986,-0.22056 c 17.002764,-2.84964 28.492954,-15.185171 31.748764,-34.084532 0.79869,-4.636197 0.79869,-15.372297 0,-20.008493 C 113.59555,42.222998 108.70996,33.509013 100.68922,27.309108 96.082693,23.748335 89.574843,21.188805 82.5,20.155311 77.170029,19.376707 67.804246,19.615545 62.989064,20.652862 52.512996,22.909684 43.395346,29.288344 38.556312,37.74588 c -4.219376,7.37452 -6.052101,15.303281 -6.052101,26.182691 0,11.769179 2.294017,20.773454 7.183209,28.194904 6.011598,9.125185 15.06803,14.767005 25.848294,16.102515 4.94089,0.6121 4.822468,0.54507 5.7318,3.24398 2.621147,7.77955 6.633622,13.71491 11.343043,16.7789 3.094847,2.01353 6.203293,2.92555 11.853729,3.47788 0.196428,0.0192 1.964285,-0.11177 3.928571,-0.29106 z"
       id="path919"
       transform="scale(0.26458333)" />
    <path
       style="fill:#ffffff;stroke:#000000;stroke-width:2.69966"
       d="M 70.535714,98.918839 C 53.538365,97.083886 43.457444,82.628221 44.391191,61.428571 c 0.470654,-10.685657 3.373002,-18.361478 9.184565,-24.29036 2.187616,-2.231778 3.308447,-3.044017 6.071429,-4.399818 3.935218,-1.931021 6.338582,-2.606833 11.150076,-3.135336 6.724691,-0.738651 14.667303,0.824689 19.719093,3.881298 2.673871,1.617838 6.766189,5.732073 8.351689,8.396418 4.359777,7.326361 6.172887,17.306043 5.076257,27.940656 -1.3657,13.24406 -6.460061,21.842139 -15.551443,26.247185 -3.358275,1.627186 -5.951432,2.339086 -10.357143,2.843347 -3.514683,0.402275 -3.83469,0.402568 -7.5,0.0069 z"
       id="path921"
       transform="scale(0.26458333)" />
  </g>
</svg>
